<svg width="1259" height="211" viewBox="0 0 1259 211" fill="none" xmlns="http://www.w3.org/2000/svg">
<path d="M215.184 150.773H198.12L192.072 138.677H153.084C139.8 138.677 129 127.877 129 114.593V85.001C129 71.717 139.8 60.917 153.084 60.917H207.3C220.584 60.917 231.384 71.717 231.384 85.001V114.593C231.384 127.337 221.556 137.705 209.028 138.569L215.184 150.773ZM216.156 108.977V91.049C216.156 82.193 209.676 76.145 201.9 76.145H158.7C150.816 76.145 144.228 81.869 144.228 90.833V108.869C144.228 117.293 150.492 123.449 158.592 123.449H184.404L174.468 103.901H191.532L201.468 123.449H201.792C209.244 123.449 216.156 117.401 216.156 108.977Z" fill="black"/>
<path d="M334.72 61.025H349.948V114.485C349.948 127.877 339.148 138.677 325.756 138.677H271.756C258.364 138.677 247.564 127.877 247.564 114.485V61.025H262.792V109.085C262.792 117.725 269.596 123.449 277.372 123.449H320.032C328.132 123.449 334.72 117.725 334.72 109.085V61.025Z" fill="black"/>
<path d="M426.762 60.917L476.334 138.677H458.838L448.146 122.801H385.83L375.354 138.677H357.858L407.322 60.917H426.762ZM418.014 76.145H416.07L394.794 107.573H439.398L418.014 76.145Z" fill="black"/>
<path d="M491.225 138.677V60.917H506.453V138.677H491.225Z" fill="black"/>
<path d="M694.979 88.133H679.751C679.751 82.841 675.215 76.145 665.603 76.145H615.599C609.335 76.145 603.827 79.601 603.827 86.081C603.827 90.617 607.931 93.101 616.139 93.101H670.463C684.179 93.101 694.979 100.013 694.979 114.485C694.979 127.877 684.179 138.677 670.787 138.677H614.303C599.399 138.677 589.139 124.421 589.139 111.461H604.367C604.367 116.537 608.147 123.449 618.623 123.449H667.763C674.891 123.449 680.075 118.805 680.075 113.621C680.075 108.113 675.539 107.033 667.763 107.033H614.627C601.235 107.033 589.139 99.797 589.139 85.109C589.139 71.717 599.939 60.917 613.331 60.917H669.815C684.719 60.917 694.979 75.173 694.979 88.133Z" fill="black"/>
<path d="M703.655 60.917H807.335V76.145H762.839V138.677H747.611V76.145H703.655V60.917Z" fill="black"/>
<path d="M868.274 60.917L917.846 138.677H900.35L889.658 122.801H827.342L816.866 138.677H799.37L848.834 60.917H868.274ZM859.526 76.145H857.582L836.306 107.573H880.91L859.526 76.145Z" fill="black"/>
<path d="M907.827 60.917H1011.51V76.145H967.011V138.677H951.783V76.145H907.827V60.917Z" fill="black"/>
<path d="M1129.16 88.133H1113.93C1113.93 82.841 1109.39 76.145 1099.78 76.145H1049.78C1043.51 76.145 1038 79.601 1038 86.081C1038 90.617 1042.11 93.101 1050.32 93.101H1104.64C1118.36 93.101 1129.16 100.013 1129.16 114.485C1129.16 127.877 1118.36 138.677 1104.96 138.677H1048.48C1033.58 138.677 1023.32 124.421 1023.32 111.461H1038.54C1038.54 116.537 1042.32 123.449 1052.8 123.449H1101.94C1109.07 123.449 1114.25 118.805 1114.25 113.621C1114.25 108.113 1109.72 107.033 1101.94 107.033H1048.8C1035.41 107.033 1023.32 99.797 1023.32 85.109C1023.32 71.717 1034.12 60.917 1047.51 60.917H1103.99C1118.9 60.917 1129.16 75.173 1129.16 88.133Z" fill="black"/>
</svg>