<svg width="1091" height="162" viewBox="0 0 1091 162" fill="none" xmlns="http://www.w3.org/2000/svg">
<path d="M131.184 125.856H114.12L108.072 113.76H69.084C55.8 113.76 45 102.96 45 89.676V60.084C45 46.8 55.8 36 69.084 36H123.3C136.584 36 147.384 46.8 147.384 60.084V89.676C147.384 102.42 137.556 112.788 125.028 113.652L131.184 125.856ZM132.156 84.06V66.132C132.156 57.276 125.676 51.228 117.9 51.228H74.7C66.816 51.228 60.228 56.952 60.228 65.916V83.952C60.228 92.376 66.492 98.532 74.592 98.532H100.404L90.468 78.984H107.532L117.468 98.532H117.792C125.244 98.532 132.156 92.484 132.156 84.06Z" fill="#E22901"/>
<path d="M250.72 36.108H265.948V89.568C265.948 102.96 255.148 113.76 241.756 113.76H187.756C174.364 113.76 163.564 102.96 163.564 89.568V36.108H178.792V84.168C178.792 92.808 185.596 98.532 193.372 98.532H236.032C244.132 98.532 250.72 92.808 250.72 84.168V36.108Z" fill="#E22901"/>
<path d="M342.762 36L392.334 113.76H374.838L364.146 97.884H301.83L291.354 113.76H273.858L323.322 36H342.762ZM334.014 51.228H332.07L310.794 82.656H355.398L334.014 51.228Z" fill="#E22901"/>
<path d="M407.225 113.76V36H422.453V113.76H407.225Z" fill="#E22901"/>
<path d="M610.979 63.216H595.751C595.751 57.924 591.215 51.228 581.603 51.228H531.599C525.335 51.228 519.827 54.684 519.827 61.164C519.827 65.7 523.931 68.184 532.139 68.184H586.463C600.179 68.184 610.979 75.096 610.979 89.568C610.979 102.96 600.179 113.76 586.787 113.76H530.303C515.399 113.76 505.139 99.504 505.139 86.544H520.367C520.367 91.62 524.147 98.532 534.623 98.532H583.763C590.891 98.532 596.075 93.888 596.075 88.704C596.075 83.196 591.539 82.116 583.763 82.116H530.627C517.235 82.116 505.139 74.88 505.139 60.192C505.139 46.8 515.939 36 529.331 36H585.815C600.719 36 610.979 50.256 610.979 63.216Z" fill="#E22901"/>
<path d="M619.655 36H723.335V51.228H678.839V113.76H663.611V51.228H619.655V36Z" fill="#E22901"/>
<path d="M784.274 36L833.846 113.76H816.35L805.658 97.884H743.342L732.866 113.76H715.37L764.834 36H784.274ZM775.526 51.228H773.582L752.306 82.656H796.91L775.526 51.228Z" fill="#E22901"/>
<path d="M823.827 36H927.507V51.228H883.011V113.76H867.783V51.228H823.827V36Z" fill="#E22901"/>
<path d="M1045.16 63.216H1029.93C1029.93 57.924 1025.39 51.228 1015.78 51.228H965.776C959.512 51.228 954.004 54.684 954.004 61.164C954.004 65.7 958.108 68.184 966.316 68.184H1020.64C1034.36 68.184 1045.16 75.096 1045.16 89.568C1045.16 102.96 1034.36 113.76 1020.96 113.76H964.48C949.576 113.76 939.316 99.504 939.316 86.544H954.544C954.544 91.62 958.324 98.532 968.8 98.532H1017.94C1025.07 98.532 1030.25 93.888 1030.25 88.704C1030.25 83.196 1025.72 82.116 1017.94 82.116H964.804C951.412 82.116 939.316 74.88 939.316 60.192C939.316 46.8 950.116 36 963.508 36H1019.99C1034.9 36 1045.16 50.256 1045.16 63.216Z" fill="#E22901"/>
</svg>